<svg xmlns="http://www.w3.org/2000/svg" version="1.1" xmlns:xlink="http://www.w3.org/1999/xlink" xmlns:svgjs="http://svgjs.dev/svgjs" viewBox="0 0 5.190802314143731 3.8305922864420934"><g transform="matrix(1,0,0,1,2.598998426685075,3.647356304767824)"><rect width="5.190802314143731" height="3.8305922864420934" x="-2.598998426685075" y="-3.647356304767824" fill="#ffffff"></rect><g><path d=" M -1.7910492557510236 -2.35443017262752 Q -1.7767751281401134 -2.3450327240191546 -1.768010304848342 -2.32815496181082 Q -1.7592454815565701 -2.3112771996024852 -1.7554733032004148 -2.2912557756604883 Q -1.7517011248442595 -2.2712343517184914 -1.7521857626716113 -2.249630928069757 Q -1.752670400498963 -2.228027504421022 -1.7564873629088449 -2.208910234400189 Q -1.7420433950924283 -2.193554973895605 -1.7226510270835234 -2.177280306209997 Q -1.703258659074618 -2.161005638524389 -1.678102226438315 -2.1432745665944224 Q -1.6468283105401933 -2.1215160166894425 -1.6164992239228613 -2.09921030088122 Q -1.5861701373055292 -2.0769045850729984 -1.557322877032322 -2.0532360389266255 Q -1.5367979926196118 -2.087075944135449 -1.5124495463406151 -2.127167581871925 Q -1.4881011000616187 -2.167259219608401 -1.4611322508888867 -2.210887098036134 Q -1.4341634017161544 -2.254514976463867 -1.405309978401796 -2.3001174335559327 Q -1.3764565550874377 -2.345719890647999 -1.346921716604004 -2.390581434568002 Q -1.4100268831433955 -2.4368038573744513 -1.4533486177527382 -2.4811091451725047 Q -1.4966703523620808 -2.525414432970558 -1.5196564047181802 -2.5659775096215762 Q -1.5426424570742796 -2.6065405862725948 -1.5447456612738937 -2.642416622495788 Q -1.5468488654735078 -2.6782926587189815 -1.527516971193442 -2.707656578375711 Q -1.524294988813431 -2.712550564985166 -1.5187806000743391 -2.719150631727286 Q -1.5132662113352473 -2.7257506984694055 -1.5064586591008986 -2.731207104241962 Q -1.4996511068665495 -2.736663510014518 -1.4921468862032654 -2.7387382620414633 Q -1.4846426655399814 -2.740813014068409 -1.477301685625799 -2.7359800404983923 Q -1.4752625245385262 -2.7346375478400544 -1.4736957780916482 -2.733021472230096 Q -1.4721290316447702 -2.731405396620137 -1.4708953661525 -2.7288394073094353 Q -1.466507870086661 -2.7195202793474182 -1.4716093421883452 -2.7117714672157813 Q -1.4737573304416856 -2.708508809476145 -1.4759851543778262 -2.7073448108267684 Q -1.4782129783139668 -2.706180812177392 -1.4809777993134425 -2.704201149093106 Q -1.4837426203129183 -2.70222148600882 -1.4874471861732306 -2.6988144101634433 Q -1.4911517520335427 -2.6954073343180665 -1.495984725603559 -2.688066354403884 Q -1.5000122035785728 -2.6819488711420654 -1.5040788418767606 -2.6708880721077115 Q -1.5081454801749485 -2.659827273073357 -1.507238296180882 -2.643445832568732 Q -1.5063311121868148 -2.627064392064107 -1.4982817799673398 -2.6051039803974496 Q -1.4902324477478646 -2.5831435687307924 -1.4700976515304456 -2.555565025578929 Q -1.4499628553130266 -2.5279864824270653 -1.4153703530557828 -2.4943972288324003 Q -1.3807778507985393 -2.4608079752377354 -1.3265158281972678 -2.4215766830945498 Q -1.308387092889753 -2.4482251109148843 -1.2907953546455735 -2.4740578743003097 Q -1.2732036164013938 -2.4998906376857346 -1.2557410430030949 -2.5246392381045832 Q -1.251176567964746 -2.531572385801311 -1.2439357614131763 -2.5323590587529523 Q -1.2366949548616066 -2.5331457317045936 -1.2301696393823334 -2.5288497551979123 Q -1.22364432390306 -2.524553778691231 -1.2225194855768577 -2.517382638982555 Q -1.2213946472506554 -2.510211499273879 -1.225422125225669 -2.5040940160120604 Q -1.2307920958590208 -2.4959373716629685 -1.236768730398601 -2.487303228253529 Q -1.2427453649381812 -2.4786690848440895 -1.2510739038398293 -2.466906532960847 Q -1.2594024427414774 -2.4551439810776046 -1.2705502162256352 -2.4390991909110893 Q -1.281697989709793 -2.423054400744574 -1.29646540895151 -2.4006236287845724 Q -1.2902085920039044 -2.395919820060436 -1.283683276524631 -2.391623843553755 Q -1.2771579610453578 -2.3873278670470737 -1.27022481334863 -2.382763392008725 Q -1.2253632694286267 -2.353228553525291 -1.187599628990904 -2.3333357551185756 Q -1.1498359885531817 -2.31344295671186 -1.1191549983378803 -2.3005514578083144 Q -1.088474008122579 -2.287659958904769 -1.065074499818473 -2.2810237619123774 Q -1.041674991514367 -2.2743875649199863 -1.0257456279703239 -2.2715001785310345 Q -1.0098162644262807 -2.2686127921420827 -1.001620459754015 -2.268186137281267 Q -0.9934246550817493 -2.267759482420451 -0.9934246550817493 -2.267759482420451 Q -0.9874668431855304 -2.2679293226259567 -0.9825728565760755 -2.264707340245946 Q -0.9764553733142568 -2.2606798622709325 -0.9747187866618726 -2.253105974764755 Q -0.9729822000094883 -2.2455320872585776 -0.9772781765161695 -2.2390067717793043 Q -0.9823796486178537 -2.2312579596476674 -0.9918584479454703 -2.231067781762348 Q -0.9936189416611692 -2.2310576129224415 -1.0138051213887191 -2.2323629996046557 Q -1.0339913011162691 -2.23366838628687 -1.072042262729021 -2.2446890492721976 Q -1.1100932243417723 -2.255709712257525 -1.1648805601300212 -2.280379555614772 Q -1.2196678959182699 -2.3050493989720184 -1.290630701755366 -2.351768143482177 L -1.3171397958899136 -2.3692205480405697 Q -1.3469431329050148 -2.323951171903112 -1.3761993040168745 -2.277736966484864 Q -1.4054554751287343 -2.231522761066617 -1.4325585735673 -2.1876909665301563 Q -1.4596616720058662 -2.1438591719936957 -1.4841443675506965 -2.1035636181484927 Q -1.5086270630955267 -2.0632680643032897 -1.5291519475082371 -2.029428159094466 Q -1.477564741383735 -1.9843580510610357 -1.4380070706376915 -1.9352233590764676 Q -1.398449399891648 -1.8860886670918995 -1.380459561854667 -1.8312768849297372 Q -1.3624697238176857 -1.7764651027675749 -1.37125953279397 -1.7156075585335375 Q -1.3800493417702544 -1.6547500142995004 -1.4248885965587401 -1.5866420339845864 Q -1.4485164673454871 -1.5507527988485836 -1.478212492230972 -1.5220738637444313 Q -1.507908517116457 -1.4933949286402792 -1.5406342921495833 -1.473433542011868 Q -1.5733600671827097 -1.453472155383457 -1.607832597708127 -1.4428451499769226 Q -1.642305128233544 -1.4322181445703879 -1.674809679551033 -1.4325721025154077 Q -1.6800911606981297 -1.4325415959956884 -1.68457731509013 -1.4354950798440318 Q -1.6906947983519487 -1.4395225578190456 -1.6925656342701667 -1.4468925292164958 Q -1.6944364701883847 -1.454262500613946 -1.6898719951500358 -1.4611956483106738 Q -1.6874555083650278 -1.464866138267765 -1.6832037766014738 -1.467328384832352 Q -1.67895204483792 -1.469790631396939 -1.6743468944399456 -1.4696818042308712 Q -1.6460396613029764 -1.4691681749202519 -1.6164356952872483 -1.4786159284175502 Q -1.58683172927152 -1.4880636819148485 -1.5580891874702798 -1.5059706541961269 Q -1.5293466456690397 -1.5238776264774054 -1.5030866881121994 -1.5495573179536355 Q -1.476826730555359 -1.5752370094298656 -1.4556153465536203 -1.607455754608777 Q -1.416146062398486 -1.6674070905745997 -1.408260407343366 -1.7206754940425997 Q -1.4003747522882457 -1.7739438975105997 -1.416359505141175 -1.821589624384039 Q -1.4323442579941044 -1.8692353512574786 -1.4673308542453944 -1.9124376534455938 Q -1.5023174504966843 -1.9556399556337092 -1.5487320026401576 -1.9961354197888843 Q -1.5724687005929723 -1.955641034254907 -1.586281121713993 -1.9319969344824481 Q -1.6000935428350136 -1.9083528347099892 -1.600630539898349 -1.9075371702750799 Q -1.6046580178733625 -1.9014196870132614 -1.6118886555850258 -1.8988725203459211 Q -1.619119293296689 -1.896325353678581 -1.6260524409934167 -1.9008898287169298 Q -1.63257775647269 -1.905185805223611 -1.6345131748138484 -1.9120136951377729 Q -1.6364485931550066 -1.9188415850519347 -1.6329682810832344 -1.925903897594543 Q -1.6324312840198993 -1.9267195620294522 -1.6175448687722083 -1.9519949906717295 Q -1.6026584535245172 -1.977270419314007 -1.577310764381697 -2.0202117981527117 Q -1.6065658568723589 -2.0441488428307517 -1.6373724425500389 -2.0670612225452025 Q -1.668179028227719 -2.089973602259653 -1.6997316114974148 -2.1130848136628773 Q -1.719994057524263 -2.1275939032128335 -1.7378893459291835 -2.1425906606630436 Q -1.7557846343341041 -2.1575874181132537 -1.7695421025614921 -2.1713215185879258 Q -1.7736784077025736 -2.160598884928133 -1.7799032030940085 -2.1480359218698406 Q -1.7861279984854435 -2.135472958811549 -1.7936459573721357 -2.1240536567228205 Q -1.8172738281588827 -2.088164421586818 -1.8458058543949911 -2.057257662546525 Q -1.8743378806310993 -2.0263509035062324 -1.904023736676678 -1.995911474686381 Q -1.9337095927222565 -1.96547204586653 -1.9626443667558662 -1.9339535385000552 Q -1.9915791407894758 -1.9024350311335807 -2.0157440086395577 -1.8657301315626689 Q -2.035612899982959 -1.8355505474710303 -2.046609655904972 -1.8050836422043626 Q -2.057606411826985 -1.7746167369376948 -2.057443710388482 -1.7464488374865128 Q -2.0572810089499796 -1.7182809380353306 -2.044884856024291 -1.6940433732694522 Q -2.0324887030986023 -1.6698058085035736 -2.0055717767466006 -1.6520849054135134 Q -1.9884428236135083 -1.6408079670834752 -1.9713647146799482 -1.6383334973319312 Q -1.954286605746388 -1.6358590275803873 -1.9402128248607033 -1.6377008720153374 Q -1.9261390439750188 -1.6395427164502876 -1.9163424169526537 -1.643323548609898 Q -1.9065457899302891 -1.6471043807695085 -1.9039798006195874 -1.6483380462617785 Q -1.8938450082226614 -1.6521885452642824 -1.88568836387357 -1.6468185746309307 Q -1.8791630483942967 -1.6425225981242495 -1.8775657954276994 -1.6356250413671942 Q -1.8759685424611021 -1.6287274846101387 -1.879996020436116 -1.6226100013483202 Q -1.8818755101577889 -1.6197551758261381 -1.8846403311572648 -1.6177755127418525 Q -1.8874051521567403 -1.6157958496575664 -1.889971141467442 -1.6145621841652964 Q -1.9018562587401604 -1.6089410226071874 -1.9175410308158505 -1.6046521848675097 Q -1.9332258028915408 -1.600363347127832 -1.9513031546889243 -1.599988075777147 Q -1.9693805064863081 -1.5996128044264621 -1.9885028609270945 -1.6043100136941935 Q -2.0076252153678804 -1.6090072229619246 -2.0259776651533365 -1.6210896568869657 Q -2.0618669002893393 -1.6447175276737127 -2.077427052628503 -1.6774687248066051 Q -2.0929872049676668 -1.7102199219394976 -2.092857500811187 -1.7463797099542182 Q -2.0927277966547075 -1.7825394979689388 -2.0799364711137747 -1.818840134705898 Q -2.067145145572842 -1.8551407714428572 -2.046470758634438 -1.8865438521868594 Q -2.023111386379359 -1.9220252551054076 -1.9942411947686893 -1.9530016809885937 Q -1.9653710031580198 -1.9839781068717801 -1.9353469817378803 -2.014487202534525 Q -1.9053229603177406 -2.0449962981972694 -1.8761842701754037 -2.0763805562979103 Q -1.8470455800330667 -2.1077648143985512 -1.8228807121829846 -2.144469713969463 Q -1.8132147650429518 -2.159151673797828 -1.8064478881682282 -2.1716500544331794 Q -1.799681011293505 -2.184148435068531 -1.7959627072097846 -2.1969000609756906 Q -1.8168231633394065 -2.2211564483849306 -1.8290698137394015 -2.242957188685988 Q -1.8413164641393966 -2.2647579289870454 -1.8462323034651158 -2.283486189433785 Q -1.851148142790835 -2.302214449880525 -1.8496083334801743 -2.3169848991951447 Q -1.8480685241695136 -2.3317553485097644 -1.8413560608778243 -2.3419511539461286 Q -1.8324956093327942 -2.3554096171221297 -1.818297748021182 -2.3592158713815063 Q -1.8040998867095699 -2.3630221256408825 -1.7910492557510236 -2.35443017262752 Z M -1.8137424660968873 -2.3208485971104578 Q -1.815890454350228 -2.3175859393708214 -1.8160486106793763 -2.30979796691601 Q -1.8162067670085247 -2.3020099944611987 -1.8133656797097508 -2.2907859546777427 Q -1.8105245924109772 -2.279561914894287 -1.8038090990463849 -2.265787139059989 Q -1.7970936056817925 -2.2520123632256914 -1.7852257960159843 -2.237183930944536 Q -1.7824828277327727 -2.2546698720955507 -1.785558337659993 -2.271309642291937 Q -1.7886338475872132 -2.2879494124883233 -1.7941904267223823 -2.30037661124433 Q -1.799747005857551 -2.3128038100003367 -1.8054022433188812 -2.31886536464267 Q -1.8110574807802113 -2.3249269192850033 -1.8137424660968873 -2.3208485971104578 Z M -0.9771996772175544 -2.646146679707684 Q -0.967801746437424 -2.630148075853768 -0.9724048473967745 -2.6124373345958145 Q -0.9770079483561249 -2.594726593337861 -0.9930065522100409 -2.5853286625577305 Q -1.0090051560639568 -2.5759307317776003 -1.0267158973219102 -2.580533832736951 Q -1.0444266385798635 -2.585136933696301 -1.053824569359994 -2.601135537550217 Q -1.0585235347500592 -2.609134839477175 -1.0596571039841312 -2.617812799452189 Q -1.0607906732182033 -2.626490759427203 -1.058619399180774 -2.6348448826620867 Q -1.0564481251433444 -2.64319900589697 -1.0512325607189048 -2.6502267976035374 Q -1.0460169962944654 -2.657254589310105 -1.0380176943675075 -2.6619535547001703 Q -1.0300183924405495 -2.6666525200902353 -1.0213404324655357 -2.6677860893243075 Q -1.0126624724905218 -2.6689196585583796 -1.0043083492556382 -2.6667483845209503 Q -0.9959542260207546 -2.6645771104835205 -0.988926434314187 -2.659361546059081 Q -0.9818986426076196 -2.6541459816346418 -0.9771996772175544 -2.646146679707684 Z M -0.900478266353817 -2.359366504845161 Q -0.9360914777311532 -2.4199927931336846 -0.9638790891045257 -2.4846497169534825 Q -0.9664994528733151 -2.491038567361774 -0.9646755826818743 -2.4980560308790767 Q -0.9628517124904336 -2.505073494396379 -0.9556944423452607 -2.509277831850648 Q -0.9493792039818728 -2.51298754136912 -0.9423249344421186 -2.5106189983028377 Q -0.9352706649023644 -2.5082504552365554 -0.9315609553838919 -2.5019352168731674 Q -0.9300770715765029 -2.4994091215278127 -0.9237101922667892 -2.4861603598812914 Q -0.9173433129570754 -2.47291159823477 -0.9085533389074253 -2.4545738398750867 Q -0.8997633648577752 -2.4362360815154034 -0.8893158050777417 -2.4160405576691555 Q -0.8788682452977081 -2.3958450338229076 -0.8692230005496796 -2.3794254140780993 Q -0.8561153602510767 -2.3571115718607953 -0.8436569894400147 -2.346025352069719 Q -0.8311986186289527 -2.334939132278643 -0.8198002050070591 -2.331441526712897 Q -0.8084017913851653 -2.3279439211471518 -0.7991291135962646 -2.3299931342079123 Q -0.7898564358073639 -2.3320423472686733 -0.782699165662191 -2.3362466847229424 Q -0.7709107207172003 -2.343171475824091 -0.7632265233483879 -2.3590112126788867 Q -0.7555423259795755 -2.3748509495336823 -0.7511836282607951 -2.3977979115946053 Q -0.7468249305420146 -2.4207448736555284 -0.7458417774123113 -2.4499202231183426 Q -0.744858624282608 -2.4790955725811563 -0.7471405976746262 -2.512865290821336 Q -0.7475086578991451 -2.518312019569752 -0.7450797417045524 -2.5228534326807446 Q -0.7426508255099595 -2.527394845791737 -0.7380196507101418 -2.530115299438617 Q -0.7312833964558614 -2.5340723229249873 -0.7238949619867119 -2.5316169288972077 Q -0.7165065275175624 -2.5291615348694285 -0.713044131966988 -2.523267312396933 Q -0.7105709922880064 -2.5190571534880077 -0.7105238580762893 -2.5151207863801672 Q -0.7098878275053416 -2.5024696532748614 -0.7093047526007675 -2.484124477453241 Q -0.7087216776961934 -2.4657793016316205 -0.7097490543102857 -2.4453555241887246 Q -0.7107764309243778 -2.4249317467458282 -0.7138220360314355 -2.4036055643928362 Q -0.7168676411384931 -2.3822793820398447 -0.7231179996389617 -2.363034712035457 Q -0.7293683581394304 -2.3437900420310696 -0.7394785609755075 -2.3282240969773587 Q -0.7495887638115843 -2.312658151923648 -0.7643243199928227 -2.3040021630472123 Q -0.7832700350829864 -2.292873034491795 -0.8022835407633974 -2.292463661510215 Q -0.8212970464438084 -2.292054288528635 -0.8391049668525241 -2.2997149187915893 Q -0.8569128872612398 -2.307375549054543 -0.8725127276100743 -2.3228456296775386 Q -0.8881125679589086 -2.3383157103005345 -0.900478266353817 -2.359366504845161 Z M -1.0007765671075357 -2.6322970975053863 Q -1.00423896265811 -2.6381913199778815 -1.0112564261754124 -2.6400151901693225 Q -1.0182738896927148 -2.641839060360763 -1.02416811216521 -2.6383766648101887 Q -1.0300623346377054 -2.6349142692596144 -1.0316756968837 -2.628020462726261 Q -1.0332890591296944 -2.6211266561929083 -1.02982666357912 -2.6152324337204127 Q -1.0263642680285456 -2.6093382112479175 -1.0196809694406388 -2.607601192017974 Q -1.012997670852732 -2.6058641727880305 -1.0071034483802364 -2.609326568338605 Q -1.0012092259077412 -2.612788963889179 -0.9992616987323513 -2.6195959194610348 Q -0.9973141715569614 -2.626402875032891 -1.0007765671075357 -2.6322970975053863 Z M -0.6306008613911468 -2.45450746433051 Q -0.6158607894646955 -2.4451062464300866 -0.5977348344724922 -2.4430805914466114 Q -0.579608879480289 -2.441054936463136 -0.557811307078376 -2.449667847912429 Q -0.5355596185847564 -2.458460195016915 -0.5216117128135452 -2.4763093493797625 Q -0.5076638070423339 -2.49415850374261 -0.49949653091337554 -2.5173362918488467 Q -0.49132925478441714 -2.540514079955083 -0.4879557121941468 -2.566522863300323 Q -0.48458216960387646 -2.5925316466455635 -0.4834792074721387 -2.6176432517148354 Q -0.4831824192207357 -2.6235357069995753 -0.4800822704989418 -2.6276482664007035 Q -0.4769821217771479 -2.6317608258018317 -0.47198684476837616 -2.6337346180089614 Q -0.4642668712093653 -2.6367850241472524 -0.4573454243841236 -2.633219705426307 Q -0.45042397755888197 -2.6296543867053614 -0.4479118783861715 -2.62329676142147 Q -0.44701470011020356 -2.6210261809629376 -0.44684079140873245 -2.6192573389867713 Q -0.44666688270726135 -2.617488497010605 -0.4468573722699 -2.6153131613333915 Q -0.45091716300822277 -2.533906455185642 -0.474111079032397 -2.484315510225961 Q -0.49730499505657133 -2.4347245652662806 -0.5437200811919558 -2.415334460597927 Q -0.5736917432445863 -2.4034917073551494 -0.6000649248539361 -2.4064587562443727 Q -0.626438106463286 -2.4094258051335964 -0.647782849341529 -2.422255001536709 Q -0.6691275922197719 -2.4350841979398212 -0.6850905520102434 -2.45555258378895 Q -0.7010535118007148 -2.4760209696380784 -0.7102047302155884 -2.499180890315111 Q -0.719355948630462 -2.5223408109921435 -0.7213952306574553 -2.544110748625444 Q -0.7234345126844486 -2.5658806862587444 -0.7185047254955406 -2.584629139090403 Q -0.7135749383066325 -2.603377591922061 -0.7020460071196554 -2.6173833403665703 Q -0.6905170759326782 -2.63138908881108 -0.6728065483561239 -2.63838707936363 Q -0.6623618782468739 -2.642514099433083 -0.650439627459138 -2.6422372988037273 Q -0.638517376671402 -2.641960498174371 -0.6272031630547966 -2.637243308362992 Q -0.6158889494381912 -2.6325261185516124 -0.6064077810495795 -2.6231470084660793 Q -0.5969266126609677 -2.6137678983805457 -0.5911846716947725 -2.599236183445937 Q -0.5838278098318349 -2.5806174236859696 -0.5837257515287566 -2.5617571452118244 Q -0.5836236932256783 -2.5428968667376792 -0.5891870321614865 -2.524423094342534 Q -0.5947503710972947 -2.5059493219473885 -0.6055249911802828 -2.4880414912864364 Q -0.6162996112632709 -2.4701336606254847 -0.6306008613911468 -2.45450746433051 Z M -0.6558876617299265 -2.478641940635626 Q -0.6441427264045412 -2.4901079551388126 -0.6361514791698968 -2.5037658861803798 Q -0.6281602319352525 -2.517423817221947 -0.6242925980091816 -2.5315524452163882 Q -0.6204249640831105 -2.5456810732108295 -0.6206388480286757 -2.5595095061929882 Q -0.620852731974241 -2.5733379391751474 -0.6256974946644681 -2.5855990736512235 Q -0.6310805643202761 -2.599222556402419 -0.6406735583513747 -2.603569820995966 Q -0.6502665523824734 -2.6079170855895133 -0.6593488742166038 -2.604328372485641 Q -0.67161000869268 -2.599483609795414 -0.6775466796071998 -2.5892625909711375 Q -0.6834833505217197 -2.5790415721468616 -0.6846262878975515 -2.5659895580835816 Q -0.6857692252733835 -2.552937544020302 -0.6829735119495581 -2.5385542232113947 Q -0.6801777986257328 -2.5241709024024876 -0.6749741646251184 -2.5110015357429987 Q -0.6717443228316335 -2.5028274460922812 -0.6665662034067887 -2.494373149051328 Q -0.6613880839819439 -2.4859188520103754 -0.6558876617299265 -2.478641940635626 Z M -0.27242465164816576 -2.5616591860496847 Q -0.2843827738103576 -2.5312669495861653 -0.3039193543282931 -2.5114306085180607 Q -0.3234559348462286 -2.491594267449956 -0.3460513555978098 -2.4875800922800906 Q -0.36431999365227974 -2.4843345889512634 -0.3799383143953766 -2.4885029003433092 Q -0.39555663513847344 -2.4926712117353556 -0.4083111186143534 -2.5030514537657447 Q -0.42106560209023325 -2.513431695796134 -0.4296689562340277 -2.529756634787697 Q -0.4382723103778221 -2.54608157377926 -0.4421156695830124 -2.5677154872648167 Q -0.4480942283466417 -2.6013682415756825 -0.4462160853472031 -2.628481945519907 Q -0.44433794234776447 -2.655595649464132 -0.43976327557488765 -2.6745096847864844 Q -0.43518860880201077 -2.6934237201088367 -0.4300808096042513 -2.7037537508887977 Q -0.4249730104064918 -2.7140837816687586 -0.4249730104064918 -2.7140837816687586 Q -0.4230816901354554 -2.7173953433785205 -0.41973226183487533 -2.719478164145089 Q -0.4163828335342953 -2.721560984911658 -0.4125368044701963 -2.7222442487703584 Q -0.40484474634199846 -2.7236107764877597 -0.39881464139848666 -2.718978893522662 Q -0.39278453645497485 -2.7143470105575638 -0.3915034167199114 -2.7071357060623784 Q -0.390990968825886 -2.7042511842643044 -0.3916804050143916 -2.7011531425103863 Q -0.39236984120289714 -2.698055100756468 -0.39329965420790886 -2.694914355011381 Q -0.39493475053193267 -2.690160532402582 -0.3986429928218238 -2.68032710238614 Q -0.4023512351117149 -2.670493672369698 -0.4055580392377365 -2.6550461675912764 Q -0.408764843363758 -2.6395986628128547 -0.40963260277619806 -2.6193594688348156 Q -0.4105003621886381 -2.599120274856777 -0.4060591471070849 -2.574121085940134 Q -0.4010200761491688 -2.545756621592404 -0.3871174223120825 -2.5331007233704597 Q -0.37321476847499624 -2.520444825148515 -0.3525423622554645 -2.5241173683890303 Q -0.3438887968612419 -2.5256547120711064 -0.33357327828233324 -2.5331904664356815 Q -0.32325775970342463 -2.540726220800256 -0.3144905945367478 -2.5541859875951483 Q -0.3057234293700711 -2.5676457543900404 -0.3007107129553506 -2.5868855745112365 Q -0.29569799654063017 -2.6061253946324325 -0.29756462749244644 -2.6305901161947385 L -0.30504349595932156 -2.714560860807929 Q -0.30536310842836023 -2.7219429812677896 -0.3009288982885998 -2.7276900054036264 Q -0.2964946881488394 -2.733437029539463 -0.2892833836536539 -2.734718149274527 Q -0.2811105718924437 -2.7361700849742654 -0.2752354357831005 -2.7310147443849866 Q -0.2693602996737573 -2.7258594037957073 -0.2679937719563563 -2.7181673456675095 L -0.26006584411748185 -2.6372519388170685 Q -0.25923378375441775 -2.6269852965591336 -0.2546472746393974 -2.6109386009748947 Q -0.25006076552437695 -2.5948919053906554 -0.24195401214410142 -2.5799665233069606 Q -0.23384725876382584 -2.565041141223266 -0.2212635912526211 -2.5556224064589013 Q -0.20867992374141633 -2.546203671694537 -0.19137279295297116 -2.5492783590586896 Q -0.1788731984946496 -2.551498966599466 -0.1680073654308975 -2.560124340203572 Q -0.15714153236714545 -2.568749713807678 -0.14796317441928736 -2.581290677327714 Q -0.13878481647142926 -2.5938316408477498 -0.1317588401419711 -2.6087178214111724 Q -0.12473286381251286 -2.623604001974595 -0.11919185237326058 -2.638474335407511 Q -0.11365084093400829 -2.653344668840427 -0.11005970088746764 -2.666628782270293 Q -0.1064685608409271 -2.6799128957001592 -0.10415987545890426 -2.6892497249530822 Q -0.10269559509955561 -2.694965054827906 -0.09888126029646965 -2.6986182484670187 Q -0.09506692549338375 -2.702271442106131 -0.08977863553024773 -2.703210929911844 Q -0.08112507013602516 -2.70474827359392 -0.07529263801785069 -2.6998333098211473 Q -0.06946020589967633 -2.6949183460483743 -0.06826449414695046 -2.6881877951862014 Q -0.06758123028824997 -2.6843417661221025 -0.0684256353109241 -2.6807202667440033 Q -0.06966538598427308 -2.676532605750554 -0.07301614921430749 -2.6632911963118566 Q -0.0763669124443419 -2.650049786873159 -0.08248509522909991 -2.6328452461270127 Q -0.08860327801385798 -2.6156407053808657 -0.09802818510802724 -2.596112967051644 Q -0.10745309220219657 -2.576585228722422 -0.12023226499729667 -2.559189187480743 Q -0.13301143779239677 -2.5417931462390637 -0.14937424337477806 -2.529215651057664 Q -0.16573704895715935 -2.5166381558762643 -0.1864094551766911 -2.512965612635749 Q -0.2147739195244207 -2.507926541677833 -0.23638447862021134 -2.5207008770725823 Q -0.25799503771600196 -2.533475212467332 -0.27242465164816576 -2.5616591860496847 Z M 1.1934730195865817 -2.9077191258655617 Q 1.1998449299780087 -2.905243484642054 1.2036774047670091 -2.8982541578989234 Q 1.2075098795560097 -2.8912648311557927 1.2045037437846076 -2.883527511394774 Q 1.200790281949346 -2.873969645807634 1.1901975425996532 -2.87232294358913 Q 1.1895655746271578 -2.8720446386485645 1.1743214912417326 -2.8685382176040832 Q 1.1590774078563073 -2.8650317965596024 1.1359728978145454 -2.8541025457861777 Q 1.1685166484106495 -2.8367439539800405 1.2040172920200285 -2.8229510957347834 Q 1.2386076627163465 -2.8095119005214557 1.2689104221671337 -2.803238863567224 Q 1.2992131816179207 -2.7969658266129915 1.32501381926153 -2.7966326910185466 Q 1.3508144569051392 -2.7962995554241017 1.3718477254676233 -2.8012236165046476 Q 1.3928809940301077 -2.8061476775851935 1.4091092144657846 -2.8155578148979523 Q 1.4130778538167215 -2.817682780997877 1.4175146872908073 -2.8183162429245456 Q 1.4219515207648932 -2.818949704851214 1.4260477488736676 -2.8173582212075305 Q 1.4333299321781556 -2.814528916952093 1.435986886780148 -2.8072105485560965 Q 1.43864384138214 -2.7998921801600996 1.4361682001586322 -2.7935202697686727 Q 1.4336925589351246 -2.7871483593772455 1.4290919516116924 -2.7847450883367557 Q 1.4125100681440856 -2.7744246781109356 1.388911248645938 -2.7676162768253487 Q 1.3653124291477907 -2.760807875539762 1.335125694742396 -2.7599639969930254 Q 1.3049389603370014 -2.759120118446289 1.2686948055722542 -2.7656061720079945 Q 1.232450650807507 -2.7720922255697005 1.1910332332632314 -2.7881838935225005 Q 1.1673661375236455 -2.7973791323526718 1.1444947836059012 -2.8086224852372306 Q 1.1216234296881569 -2.8198658381217894 1.0993709860762895 -2.8327021686042047 Q 1.0830674075492484 -2.8217497904058897 1.0669421544923454 -2.806537410249453 Q 1.0508169014354423 -2.791325030093017 1.0366905196747993 -2.7711453219146005 Q 1.0122788067466126 -2.7366273214013 0.9945188031045917 -2.694286573277345 Q 0.9767587994625708 -2.65194582515339 0.9588350219712036 -2.6078352679156134 Q 0.9409112444798364 -2.5637247106778367 0.9202059115369856 -2.5212186947503623 Q 0.899500578594135 -2.4787126788228875 0.8699316484613848 -2.4430553432140876 Q 0.8474389668755744 -2.4161731890372047 0.8196599853731896 -2.396583287923082 Q 0.7918810038708048 -2.376993386808959 0.7591055911048565 -2.367464236542461 Q 0.7263301783389082 -2.357935086275963 0.689455549555839 -2.359427696482452 Q 0.6525809207727695 -2.36092030668894 0.6120737761415551 -2.376658311609811 Q 0.5456238534881019 -2.4024757129406766 0.5021739795434633 -2.4497397463032966 Q 0.4587241055988247 -2.497003779665916 0.44123117337627565 -2.5692801786211694 Q 0.44074992158650833 -2.5720863554517166 0.4400657229475393 -2.577066741140315 Q 0.4393815243085704 -2.582047126828914 0.4409730079522539 -2.5861433549376884 Q 0.4434486491757616 -2.5925152653291152 0.45029882344860944 -2.5966637241043635 Q 0.45714899772145734 -2.600812182879612 0.46534145393900633 -2.5976292155922445 Q 0.47034795496084186 -2.5956840689166314 0.4734716097318098 -2.59158933476203 Q 0.47659526450277767 -2.587494600607429 0.4774562946577115 -2.5829693513753607 Q 0.49087612619637644 -2.5190853675785116 0.5260190128322468 -2.477406078589576 Q 0.5611618994681171 -2.4357267896006403 0.6248810033823873 -2.410970377365563 Q 0.6585611011656443 -2.3978848451841652 0.6886855351462933 -2.395871810188054 Q 0.7188099691269423 -2.3938587751919433 0.7456193651998668 -2.4015151489658453 Q 0.7724287612727916 -2.4091715227397477 0.7962898401365399 -2.426092905539433 Q 0.8201509190002882 -2.4430142883391186 0.8414811380657088 -2.468252728205844 Q 0.8647826191399792 -2.495868323779823 0.8839210898182099 -2.5363639046985926 Q 0.9030595604964409 -2.576859485617362 0.921564569248003 -2.621791900010217 Q 0.9400695779995651 -2.6667243144030723 0.9602559801069666 -2.7112653867183156 Q 0.9804423822143677 -2.7558064590335594 1.0061933891789092 -2.7924233103135476 Q 1.0195109714510922 -2.8118695770948676 1.0347766883072347 -2.826892068068721 Q 1.050042405163377 -2.8419145590425736 1.0651574058367914 -2.8538525682453137 Q 1.0089435715927548 -2.8898366757109257 0.9559764990150044 -2.932155014522282 Q 0.9030094264372537 -2.9744733533336385 0.8522426780507915 -3.0143652936796146 Q 0.8014759296643292 -3.0542572340255907 0.7529486784690109 -3.087778757934313 Q 0.7044214272736924 -3.1213002818430353 0.6570872357945203 -3.1396907595033783 Q 0.6138492724241228 -3.1564897535200376 0.5724363367423668 -3.158436006228883 Q 0.531023401060611 -3.1603822589377293 0.49573317407129974 -3.1484252162516775 Q 0.46044294708198846 -3.1364681735656257 0.4334496376431735 -3.1108107823338784 Q 0.40645632820435856 -3.085153391102131 0.39160248086331234 -3.046921928753569 Q 0.38081575838945736 -3.0191586049052086 0.38158278489065645 -2.992144768028909 Q 0.3823498113918556 -2.9651309311526095 0.39301381489133325 -2.941343716426052 Q 0.40367781839081096 -2.9175565016994947 0.42363145229513544 -2.8988033972821823 Q 0.4435850861994599 -2.8800502928648704 0.47180354650435097 -2.8690867388750507 Q 0.5013874161788334 -2.857592690337336 0.5280475900232033 -2.8574494439254745 Q 0.5547077638675733 -2.8573061975136125 0.5775861996352429 -2.8636087256303684 Q 0.6004646354029127 -2.8699112537471243 0.618993159500306 -2.8805230265801285 Q 0.6375216835976991 -2.8911347994131322 0.6507031013079456 -2.9014667733513977 Q 0.6638845190181919 -2.9117987472896627 0.6712013934600156 -2.9191708403063066 Q 0.6785182679018391 -2.92654293332295 0.6785182679018391 -2.92654293332295 Q 0.6822839604035742 -2.930842108280926 0.6880731455806333 -2.932259748316991 Q 0.6938623307576921 -2.9336773883530567 0.6993239682360581 -2.9315554101614785 Q 0.7070612879970766 -2.9285492743900763 0.7098066583570513 -2.921458474222345 Q 0.7125520287170259 -2.9143676740546134 0.7098995559775534 -2.9075406272066555 Q 0.7093690614296588 -2.906175217837064 0.7086994144114815 -2.9051257924537204 Q 0.708029767393304 -2.9040763670703766 0.7070441363888791 -2.90288778921675 Q 0.7062353369004188 -2.9021543478196534 0.6973516001939755 -2.8927718197943046 Q 0.6884678634875321 -2.883389291768956 0.6728093105996047 -2.8714005458539154 Q 0.6571507577116773 -2.8594117999388744 0.6350579940075772 -2.847041781704494 Q 0.6129652303034774 -2.8346717634701135 0.5854731295457569 -2.8272806369701584 Q 0.5579810287880365 -2.8198895104702038 0.5260114276022019 -2.820524078430105 Q 0.49404182641636735 -2.821158646390006 0.45808604635045774 -2.835128336151228 Q 0.4234956756541397 -2.8485675313645555 0.3984586886824425 -2.8724386799865758 Q 0.37342170171074524 -2.896309828608596 0.35965866481936326 -2.926277570589824 Q 0.34589562792798123 -2.956245312571052 0.3448734239111068 -2.9906920489345676 Q 0.3438512198942324 -3.025138785298083 0.3574672466235248 -3.060184292450932 Q 0.375504061251938 -3.106608211017043 0.4078429831237266 -3.1372605395581807 Q 0.44018190499551507 -3.167912868099318 0.48201937993804495 -3.182564544433044 Q 0.5238568548805749 -3.1972162207667703 0.5722982903053166 -3.1951584248750513 Q 0.6207397257300584 -3.193100628983333 0.6708047359484135 -3.1736491622272007 Q 0.7072156524708537 -3.1595026409500138 0.7416060642263165 -3.1388073777654353 Q 0.7759964759817795 -3.118112114580857 0.8099332452348849 -3.0928785444975913 Q 0.8438700144879905 -3.0676449744143257 0.8780604673025982 -3.039693643258496 Q 0.9122509201172058 -3.0117423121026663 0.9474907983151573 -2.9831213339286586 Q 0.9827306765131087 -2.9545003557546514 1.0199548743865288 -2.9269418606306066 Q 1.0571790722599488 -2.8993833655065617 1.0975877313749087 -2.875302188185414 Q 1.1144479197830812 -2.8849906304387387 1.1298427193512346 -2.891581533254332 Q 1.145237518919388 -2.8981724360699257 1.1568535683191878 -2.9017788365848345 Q 1.1684696177189875 -2.905385237099743 1.175889459539585 -2.906955087272709 Q 1.1833093013601828 -2.9085249374456756 1.1843964057892085 -2.9086264108702764 Q 1.1898319279343377 -2.9091337779932807 1.1934730195865817 -2.9077191258655617 Z M 1.1298679473170683 -2.3154014821428373 Q 1.1194084139138925 -2.3071419420576684 1.1094094186497545 -2.300796091219188 Q 1.0994104233856166 -2.2944502403807077 1.0915975198090309 -2.2900700132666585 Q 1.0837846162324454 -2.2856897861526093 1.078680663855741 -2.2831182077514622 Q 1.0735767114790364 -2.280546629350315 1.0728864900596307 -2.280525855559218 Q 1.0616328662815644 -2.2756966487799812 1.0527454261502802 -2.284064744133843 Q 1.0477684596767614 -2.288750877532005 1.0470170884623669 -2.2965002881569982 Q 1.0462657172479723 -2.304249698781991 1.0516212982744437 -2.3099376604660127 Q 1.0536296411593704 -2.3120706460975207 1.0553448078123364 -2.312467691284966 Q 1.0570599744653026 -2.3128647364724113 1.0614944792136982 -2.3147253196630557 Q 1.0659289839620938 -2.3165859028537 1.0750911696908456 -2.322043009679052 Q 1.0842533554195974 -2.3275001165044036 1.102180681689656 -2.3401294968080735 Q 1.096137222400383 -2.345819801648699 1.0900729893200127 -2.352200327908731 Q 1.0840087562396428 -2.3585808541687627 1.0805068862431735 -2.365902058919665 Q 1.0770050162467042 -2.373223263670567 1.0778014497781985 -2.3811919706803795 Q 1.0785978833096928 -2.389160677690192 1.0862965310352455 -2.397337122610973 Q 1.0919868358758713 -2.403380581900246 1.1050710537362385 -2.4105101362180683 Q 1.1181552715966059 -2.4176396905358906 1.1332155000769526 -2.422238042456457 Q 1.1482757285572993 -2.426836394377024 1.1622475188524928 -2.427429619001588 Q 1.1762193091476865 -2.4280228436261515 1.1833292612527138 -2.421328367343062 Q 1.191505706173495 -2.4136297196175094 1.190970116609014 -2.402732765022997 Q 1.190434527044533 -2.391835810428484 1.1850777744397596 -2.38044832858659 Q 1.179721021834986 -2.369060846744696 1.1719277204711953 -2.3582908780533685 Q 1.1641344191074048 -2.347520909362041 1.1574399428243156 -2.340410957257014 Q 1.1634834021135887 -2.334720652416388 1.1695164745073132 -2.3293754582854653 Q 1.175549546901038 -2.3240302641545423 1.1808820109798086 -2.319009406942225 Q 1.201145374479136 -2.299930149535421 1.2034422072828153 -2.281000994979503 Q 1.2057390400864947 -2.262071840423585 1.1866597826796905 -2.2418084769242577 Q 1.1789611349541378 -2.2336320320034764 1.1695265467845222 -2.2257487633146558 Q 1.1600919586149065 -2.217865494625835 1.149799787118808 -2.209783703343292 Q 1.1395076156227093 -2.2017019120607486 1.1297383036389392 -2.1934631457666764 Q 1.1199689916551692 -2.1852243794726047 1.1116008963013078 -2.1763369393413208 Q 1.0995508389917472 -2.1635390255522715 1.095239805411631 -2.15183759368732 Q 1.0909287718315146 -2.1401361618223684 1.0915751025121228 -2.1301383381365326 Q 1.0922214331927307 -2.1201405144506964 1.0964239115041543 -2.1124949727811884 Q 1.100626389815578 -2.10484943111168 1.105603356289097 -2.100163297713517 Q 1.1208897533149056 -2.0857701737048755 1.143770929110782 -2.0830046017140442 Q 1.1666521049066587 -2.080239029723213 1.1912496189338033 -2.083570023077699 Q 1.2158471329609482 -2.086901016432185 1.2396401697176542 -2.094007453802306 Q 1.26343320647436 -2.101113891172427 1.2805225516307306 -2.107155007305096 Q 1.2853125539843775 -2.108680866681586 1.2901856515024122 -2.107445840380453 Q 1.2950587490204466 -2.1062108140793194 1.2986137250729601 -2.102863575937775 Q 1.3050126819674848 -2.0968385472829945 1.3047183341572222 -2.0894030866810596 Q 1.3044239863469593 -2.0819676260791242 1.2997378529487968 -2.076990659605605 Q 1.2963906148072524 -2.0734356835530914 1.292290833873011 -2.0719305979676985 Q 1.270390712571897 -2.065053843877945 1.2423097591827756 -2.056954793539211 Q 1.2142288057936543 -2.0488557432004773 1.1853018275519007 -2.0459125797161897 Q 1.156374849310147 -2.0429694162319025 1.1287567772166676 -2.0481830954556015 Q 1.1011387051231882 -2.053396774679301 1.0805198440186092 -2.0728107559002593 Q 1.0677219302295602 -2.0848608132098203 1.060864778352602 -2.100371192933656 Q 1.0540076264756437 -2.1158815726574924 1.0541888900131753 -2.1328127712240317 Q 1.054370153550707 -2.1497439697905714 1.0619453301079804 -2.16776126338566 Q 1.0695205066652536 -2.185778556980748 1.0852525259305132 -2.2024869444275623 Q 1.1019887166382363 -2.2202618246901302 1.1221125214913956 -2.234511718008528 Q 1.142236326344555 -2.248761611326926 1.1572988979815058 -2.264759003563237 Q 1.1636586504504405 -2.271513458063013 1.1638167970402713 -2.2777358377332138 Q 1.1639749436301021 -2.2839582174034145 1.1536655130778126 -2.293665208013894 Q 1.1486885466042935 -2.2983513414120567 1.142822836117646 -2.3038742843456053 Q 1.1369571256309987 -2.309397227279154 1.1298679473170683 -2.3154014821428373 Z M 1.1308191700126573 -2.364134800479787 Q 1.1331622367117384 -2.3666232837165464 1.136833811771889 -2.3708788680840143 Q 1.1405053868320396 -2.375134452451482 1.1436541023798616 -2.379547011830479 Q 1.1468028179276837 -2.383959571209475 1.148591864427791 -2.387640361586872 Q 1.1503809109278984 -2.3913211519642696 1.1493144181121442 -2.392325323406733 Q 1.1482479252963902 -2.3933294948491963 1.1441377574666005 -2.392169519973506 Q 1.140027589636811 -2.391009545097816 1.1347355015619323 -2.388950439313449 Q 1.1294434134870537 -2.386891333529082 1.1240047372961948 -2.3839642575226834 Q 1.1185660611053359 -2.381037181516285 1.1151772753815974 -2.378862648302583 L 1.1308191700126573 -2.364134800479787 Z M 1.5042425594246307 -1.7566542039297133 Q 1.4999166577250143 -1.7560541532540372 1.4861969210956234 -1.7540408448162759 Q 1.4724771844662325 -1.7520275363785143 1.4538039394976687 -1.7507600902498845 Q 1.435130694529105 -1.749492644121255 1.4134537356604429 -1.7500131171701363 Q 1.3917767767917806 -1.7505335902190176 1.3708575428248952 -1.7551273900002564 Q 1.3499383088580097 -1.7597211897814955 1.3318647443082496 -1.7692290793453822 Q 1.3137911797584896 -1.778736968909269 1.3024628735040045 -1.7952430619925615 Q 1.2864374646561958 -1.8185931448908774 1.290419351169114 -1.8447184621641948 Q 1.2944012376820324 -1.8708437794375121 1.311972742562121 -1.8935631654314253 Q 1.2796310421133366 -1.8915020363662127 1.2531582491316022 -1.9011676001562001 Q 1.226685456149868 -1.9108331639461875 1.213699348980092 -1.9297547828465473 Q 1.2034762433358002 -1.9446505253851283 1.2006221718477488 -1.960458206529868 Q 1.1977681003596972 -1.9762658876746075 1.201829194242538 -1.991489581771779 Q 1.2058902881253788 -2.0067132758689508 1.2159982283649415 -2.020460938719094 Q 1.226106168604504 -2.0342086015692376 1.241807086415441 -2.044984307518626 Q 1.2732089220373142 -2.066535719417403 1.3044848404324305 -2.0723070061353206 Q 1.3357607588275466 -2.078078292853238 1.3631925705291466 -2.072624205871883 Q 1.3906243822307465 -2.067170118890527 1.4123529925054505 -2.0527680339506915 Q 1.4340816027801548 -2.038365949010856 1.4467914097973824 -2.019846917746674 Q 1.4553567145263835 -2.00736670102516 1.4591185235851305 -1.994550871187874 Q 1.4628803326438777 -1.981735041350588 1.463966009104245 -1.9715241685558134 Q 1.465051685564612 -1.9613132957610384 1.4643926921825845 -1.9549388681025983 Q 1.463733698800557 -1.948564440444158 1.4636074113169275 -1.9478855526554317 Q 1.461413073724648 -1.9398651866743457 1.4557768468181578 -1.9359969845386678 Q 1.4497380322754898 -1.9318524822504415 1.4420689727814118 -1.933103494494091 Q 1.4343999132873337 -1.9343545067377408 1.4302554109991072 -1.9403933212804088 Q 1.4258346085583324 -1.9468347234592547 1.4272237708782565 -1.9543024891352438 Q 1.4274763458455153 -1.9556602647126964 1.4277564767766546 -1.9599980290049577 Q 1.428036607707794 -1.964335793297219 1.42713653169428 -1.970824645846644 Q 1.426236455680766 -1.977313498396069 1.4234891475265175 -1.9851995450794715 Q 1.4207418393722688 -1.9930855917628743 1.414939536168752 -2.0015399321226095 Q 1.406374231439751 -2.014020148844123 1.391067499194066 -2.0242425139746705 Q 1.3757607669483811 -2.034464879105218 1.3558717272572298 -2.0379890660541973 Q 1.3359826875660785 -2.041513253003177 1.3126796847814692 -2.0370683551202404 Q 1.28937668199686 -2.032623457237304 1.2648188361900103 -2.0157691479318505 Q 1.257169671102631 -2.01051944503343 1.2504244128073563 -2.0035212415140244 Q 1.2436791545120816 -1.9965230379946188 1.2400007538587199 -1.9880763591920654 Q 1.2363223532053584 -1.979629680389512 1.236993579436903 -1.970022689049004 Q 1.2376648056684474 -1.960415697708496 1.2445723094821581 -1.9503510068040495 Q 1.2495457122280296 -1.9431044293528479 1.260869817447052 -1.9369592217332492 Q 1.2721939226660743 -1.9308140141136505 1.288199066850312 -1.929065883749537 Q 1.3042042110345498 -1.9273177533854235 1.324337793878906 -1.930771875549151 Q 1.3444713767232623 -1.9342259977128784 1.3673400348723501 -1.9457754921921513 Q 1.373528862083937 -1.9488385190554736 1.3803927463056596 -1.947034906506727 Q 1.3872566305273817 -1.9452312939579806 1.3914011328156082 -1.9391924794153126 Q 1.3952693349512861 -1.9335562525088226 1.393742022555088 -1.9262897806509223 Q 1.39221471015889 -1.919023308793022 1.3868547834049483 -1.9147525190211663 Q 1.3794819184701173 -1.9091002284865684 1.3664215454796262 -1.8983601103151142 Q 1.3533611724891352 -1.8876199921436598 1.3425743444608462 -1.873998616777146 Q 1.3317875164325572 -1.860377241410632 1.3275251287316276 -1.8450153972371863 Q 1.3232627410306979 -1.8296535530637406 1.3334858466749895 -1.8147578105251596 Q 1.3401170503361517 -1.8050957072568907 1.3518437431913517 -1.7992267997898406 Q 1.363570436046552 -1.7933578923227902 1.3784428236567157 -1.7902401237885792 Q 1.3933152112668792 -1.7871223552543685 1.4100505243890131 -1.786467562907804 Q 1.426785837511147 -1.7858127705612392 1.4427553939174504 -1.7867051850175715 Q 1.4587249503237538 -1.7875975994739035 1.4727841308475078 -1.7895477641698503 Q 1.4868433113712618 -1.791497928865797 1.496979177831577 -1.7931243430386163 Q 1.5027891425922757 -1.7941507065357596 1.507829519858553 -1.7919839249073606 Q 1.5128698971248302 -1.7898171432789614 1.5159091988028628 -1.785388679281005 Q 1.520606301396186 -1.778544689465981 1.5184751075457212 -1.7708637673792582 Q 1.5163439136952563 -1.7631828452925353 1.510707686788766 -1.7593146431568574 Q 1.507889573335521 -1.7573805420890185 1.5042425594246307 -1.7566542039297133 Z M 1.455322434538394 -1.6143854192429956 Q 1.4731213053254262 -1.6124173776788686 1.4947281440763018 -1.6092111804577571 Q 1.5163349828271775 -1.6060049832366456 1.5388922759155452 -1.601581895575372 Q 1.5614495690039132 -1.5971588079140986 1.5841854239524606 -1.5915037152097147 Q 1.6069212789010083 -1.5858486225053308 1.6282253017294432 -1.5783894593575263 Q 1.6490692119920802 -1.5707668489524904 1.6610226508502752 -1.559726960748542 Q 1.6729760897084702 -1.5486870725445936 1.6772257183964885 -1.5367241458338496 Q 1.685724975772525 -1.512798292412362 1.672326879702994 -1.4950844824926202 Q 1.6589287836334627 -1.4773706725728781 1.6331624799487838 -1.4682176261679158 Q 1.6271810165934117 -1.4660928118239065 1.6184237632403045 -1.4637592064138212 Q 1.6096665098871972 -1.4614256010037356 1.5997589751195953 -1.4586833774505716 Q 1.5898514403519937 -1.4559411538974074 1.5797138493014928 -1.4531172067156275 Q 1.569576258250992 -1.4502932595338476 1.560834119500833 -1.4471877616464497 Q 1.549791417921685 -1.4432650274728944 1.5400775596172112 -1.4385189063993074 Q 1.5303637013127374 -1.4337727853257205 1.5239159747776934 -1.4278551176208163 Q 1.5174682482426491 -1.421937449915912 1.515221993211579 -1.4144032376168412 Q 1.5129757381805085 -1.4068690253177702 1.5164081305823693 -1.3972066614360157 Q 1.5226191263571653 -1.3797223839356978 1.5420765483085346 -1.3679800256553039 Q 1.5615339702599038 -1.3562376673749101 1.5851536705202762 -1.3488238480359507 Q 1.6087733707806486 -1.341410028696991 1.631775661831866 -1.3379222807702615 Q 1.6547779528830835 -1.3344345328435319 1.6685387994233736 -1.3336229233077739 Q 1.6744172739333072 -1.3331202803083309 1.678730698271793 -1.3297298944766403 Q 1.683044122610279 -1.3263395086449496 1.6848420424398254 -1.3212782704211734 Q 1.6876206458127603 -1.31345635680261 1.6835854349412178 -1.3065820841463394 Q 1.6795502240696751 -1.2997078114900686 1.6731086481485056 -1.2974195498888281 Q 1.6698878601879206 -1.2962754190882078 1.6661767304556414 -1.296511625984981 Q 1.6618420409003327 -1.2970444981903206 1.648377859668609 -1.298479667549108 Q 1.6349136784368854 -1.2999148369078952 1.6167727985324418 -1.3035749960809302 Q 1.5986319186279982 -1.3072351552539652 1.577588181288359 -1.3132322570757604 Q 1.5565444439487195 -1.3192293588975554 1.537592478371993 -1.3288194870032433 Q 1.5186405127952665 -1.338409615108931 1.503472436590361 -1.3519347786159228 Q 1.4883043603854553 -1.3654599421229145 1.4817664700961966 -1.383864444754828 Q 1.4744113435207802 -1.404569510215731 1.4778867902197612 -1.4203129890596213 Q 1.4813622369187422 -1.4360564679035115 1.4918602889282773 -1.4480765157873738 Q 1.502358340937812 -1.4600965636712362 1.5173332645430644 -1.4682661131576102 Q 1.532308188148317 -1.476435662643984 1.5484121279512413 -1.4821563166470855 Q 1.5553138164382088 -1.4846080255055576 1.564301126074215 -1.4870233545442588 Q 1.5732884357102213 -1.48943868358296 1.5833594177350545 -1.4917207945703264 Q 1.5934303997598878 -1.4940029055576927 1.6033379345274896 -1.4967451291108569 Q 1.6132454692950915 -1.499487352664021 1.6219876080452504 -1.5025928505514188 Q 1.6367112101507812 -1.507823162782826 1.6403680320851417 -1.5143039318989664 Q 1.6440248540195022 -1.5207847010151065 1.6427172759616504 -1.5244656015414892 Q 1.640102119845947 -1.5318274025942547 1.6282393686054417 -1.5382359359343283 Q 1.6163766173649365 -1.5446444692744017 1.5988956771032932 -1.550093584287909 Q 1.5814147368416498 -1.5555426993014163 1.5603195050792913 -1.5602260724514854 Q 1.5392242733169328 -1.5649094456015544 1.5188494396091674 -1.5682942046828456 Q 1.4984746059014022 -1.5716789637641368 1.4802005079456237 -1.5742554505483448 Q 1.4619264099898455 -1.5768319373325528 1.4501694609699782 -1.5778372233314388 Q 1.4275757880618396 -1.5801746898436737 1.4176352107131414 -1.5870069559297741 Q 1.4076946333644433 -1.5938392220158746 1.4042622409625825 -1.6035015858976294 Q 1.3995222705028696 -1.6168448503057666 1.404713913402781 -1.6277571472087795 Q 1.4099055563026925 -1.6386694441117926 1.4246291584082236 -1.6438997563431996 Q 1.4278499463688084 -1.64504388714382 1.437609148482127 -1.6474743307854693 Q 1.4473683505954458 -1.649904774427119 1.4609719004923785 -1.6531826835608223 Q 1.4745754503893114 -1.6564605926945257 1.4902495068323345 -1.6604740144857708 Q 1.5059235632753576 -1.664487436277016 1.521367563435482 -1.668419134439645 Q 1.5368115635956061 -1.6723508326022745 1.5500216099524085 -1.67600713067316 Q 1.563231656309211 -1.6796634287440455 1.57197379505937 -1.6827689266314434 Q 1.583476609204316 -1.6868551080622303 1.5937323037032034 -1.6915346201101498 Q 1.6039879982020908 -1.6962141321580693 1.6053078774876912 -1.6997920438390137 Q 1.6024565144752143 -1.7034427151595 1.582823344038865 -1.7083863737983644 Q 1.5631901736025156 -1.713330032437229 1.5172762791177705 -1.7156741734268133 Q 1.511397804607837 -1.7161768164262563 1.5070026566407353 -1.7197972585408459 Q 1.5026075086736335 -1.7234177006554354 1.5008095888440873 -1.7284789388792117 Q 1.4980309854711522 -1.7363008524977748 1.5016878074055127 -1.7427816216139151 Q 1.5053446293398731 -1.7492623907300555 1.5122463178268408 -1.7517140995885276 Q 1.5154671057874256 -1.7528582303891478 1.5196383480855027 -1.7527854707496062 Q 1.576225519201288 -1.7495692618124707 1.605917370434722 -1.7396489019536454 Q 1.635609221668156 -1.72972854209482 1.6419836647001833 -1.7117841520287043 Q 1.6457429516165072 -1.701201563015354 1.6430668132255355 -1.6919601185044266 Q 1.640390674834564 -1.6827186739934992 1.633201285028104 -1.675242106731022 Q 1.626011895221644 -1.6677655394685444 1.6161648188658353 -1.6619357460061304 Q 1.6063177425100266 -1.656105952543716 1.5952750409308785 -1.6521832183701608 Q 1.5869930147465174 -1.6492411677399943 1.5691001191031209 -1.644180453379693 Q 1.5512072234597243 -1.6391197390193917 1.5305385378185923 -1.633850233593014 Q 1.5098698521774603 -1.6285807281666365 1.4895129464478432 -1.6231628900859756 Q 1.4691560407182258 -1.6177450520053147 1.455322434538394 -1.6143854192429956 Z" fill="#0e1425" fill-rule="nonzero"></path></g><g clip-path="url(&quot;#SvgjsClipPath1019&quot;)"><g clip-path="url(&quot;#SvgjsClipPath1008&quot;)"><path d=" M 0.39830291202068246 -0.6641685100586938 C 0.5837903785796796 -0.25853370125924613 0.9913295761528369 -0.09723197212631618 1.3040302127954195 -0.30595298172453167 L 0.8243146806987895 -1.355080757159354 C 0.6388272141397959 -1.7609060048361775 0.2312880165666349 -1.9220172950917316 -0.08141262007594396 -1.7134867243708884 L -0.45105448105234514 -1.465916183789064 C -0.13628911711002134 -1.4652538797391825 0.14520404850179935 -1.269831496177312 0.2558546317474464 -0.9751551968049428 Z" fill="#73dad5" transform="matrix(1,0,0,1,0,0)" fill-rule="evenodd"></path></g><g clip-path="url(&quot;#SvgjsClipPath1008&quot;)"><path d=" M -0.2927997739573498 -0.5297186626350254 C -0.1516845658257071 -0.2210172424172303 0.15854036541105332 -0.09818416651316908 0.3965889621243448 -0.25701019024027705 L 0.03132719532746808 -1.0568534751969412 C -0.1097880128041746 -1.36555489541474 -0.4202033829183073 -1.4883879713187973 -0.6580615407542267 -1.3295619475916896 L -0.9395302015080274 -1.1417892145042423 C -0.6998684543607353 -1.1411684066108188 -0.4855912689140651 -0.9923268938607036 -0.40134993405860964 -0.767957698225689 Z" fill="#73dad5" transform="matrix(1,0,0,1,0,0)" fill-rule="evenodd"></path></g><g clip-path="url(&quot;#SvgjsClipPath1008&quot;)"><path d=" M -0.8496430513890783 -0.4682069052443145 C -0.8195431898567516 -0.3715361882851902 -0.7473121366922278 -0.29367989843423525 -0.6531657374419477 -0.2564282583379547 C -0.5590193381916638 -0.21917661824167411 -0.4530720408026264 -0.22653169040797683 -0.36497610848081885 -0.2764349557320833 L -0.621687715176436 -0.8378487662207118 C -0.6516790299661052 -0.9345542600982673 -0.7238690855898566 -1.0124647601143055 -0.818011403697811 -1.0497294276987037 C -0.9121537218057656 -1.0869940952831016 -1.018110205898144 -1.0795999339046989 -1.1061642192073344 -1.0296207157329391 L -1.304030212795416 -0.8976465737150928 C -1.135560658475849 -0.8972645466054148 -0.9849332259394417 -0.7925989590423501 -0.9258186023373423 -0.6348409229436178 Z" fill="#73dad5" transform="matrix(1,0,0,1,0,0)" fill-rule="evenodd"></path></g></g></g><defs><clipPath id="SvgjsClipPath1019"><path d=" M -1.304030212795416 -1.8047069466314234 h 2.608060425590832 v 1.6172069466314234 h -2.608060425590832 Z"></path></clipPath><clipPath id="SvgjsClipPath1008"><path d=" M -1.304030212795416 -1.8047069466314234 L 1.304030212795416 -1.8047069466314234 L 1.304030212795416 -0.1875 L -1.304030212795416 -0.1875 Z"></path></clipPath></defs></svg>